<?xml version="1.0" encoding="utf-8"?>
<!-- Generator: Adobe Illustrator 17.0.0, SVG Export Plug-In . SVG Version: 6.00 Build 0)  -->
<!DOCTYPE svg PUBLIC "-//W3C//DTD SVG 1.1//EN" "http://www.w3.org/Graphics/SVG/1.1/DTD/svg11.dtd">
<svg version="1.1" id="Capa_1" xmlns="http://www.w3.org/2000/svg" xmlns:xlink="http://www.w3.org/1999/xlink" x="0px" y="0px"
	 width="50px" height="50px" viewBox="0 0 50 50" enable-background="new 0 0 50 50" xml:space="preserve">
<g>
	<path d="M19.094,20.967c0.018,0.241-0.009,0.496,0.062,0.721c0.323,1.03,0.465,2.078,0.134,3.114
		c-0.318,0.997-1.175,1.464-2.101,1.773c-0.729,0.243-0.805,0.19-0.747-0.569c0.126-1.65,0.467-3.249,1.297-4.709
		c0.136-0.239,0.27-0.421,0.621-0.338c0.294,0.069,0.598-0.613,0.356-0.882c-0.436-0.484-0.904-0.96-1.436-1.328
		c-0.219-0.152-0.658-0.091-0.959,0c-0.518,0.157-0.546,0.429-0.143,0.787c0.411,0.364,0.533,1.205,0.106,1.836
		c-0.57,0.843-1.206,1.66-1.917,2.386c-0.668,0.682-0.778,0.651-1.244-0.212c-0.307-0.569-0.537-1.217-0.63-1.854
		c-0.168-1.153,0.712-2.176,1.951-2.491c0.302-0.077,0.601-0.27,0.836-0.481c0.433-0.391,0.905-0.591,1.483-0.493
		c0.64,0.109,1.191,0.404,1.653,0.858c0.228,0.225,0.441,0.465,0.647,0.683c0.756-0.362,0.744-0.36,0.65-1.071
		c-0.184-1.394-0.389-2.787-0.515-4.187c-0.066-0.739-0.046-1.499,0.043-2.236c0.192-1.587-0.507-2.859-1.371-4.062
		c-0.644-0.897-1.151-0.991-2.152-0.525c-0.531,0.247-1.045,0.532-1.556,0.819c-0.412,0.232-0.453,0.43-0.223,0.855
		c0.453,0.838,0.171,2.328-0.586,2.987c-0.652,0.568-1.389,0.983-2.26,1.103c-0.141,0.019-0.363,0.001-0.431-0.088
		c-0.617-0.821-1.038-1.715-0.762-2.777c0.244-0.94,1.415-1.837,2.509-1.923c0.327-0.026,0.55-0.157,0.808-0.354
		c0.781-0.596,1.613-1.137,2.599-1.329c1.017-0.198,1.824,0.263,2.433,1.009c0.421,0.515,0.708,1.141,1.041,1.725
		c0.134,0.235,0.232,0.491,0.376,0.8c0.229-0.326,0.399-0.594,0.595-0.841c0.597-0.753,1.341-0.804,2.049-0.16
		c0.694,0.631,1.093,1.445,1.426,2.296c0.299,0.764,0.585,1.534,0.855,2.31c0.166,0.476,0.432,0.852,0.862,1.125
		c0.62,0.394,1.081,0.934,1.4,1.601c0.072,0.15,0.223,0.262,0.338,0.392c0.016-0.17,0.082-0.353,0.042-0.509
		c-0.578-2.258-0.336-4.464,0.494-6.601c0.927-2.386,2.766-3.888,5.058-4.865c1.977-0.843,4.035-1.166,6.142-0.568
		c1.76,0.5,3.002,1.612,3.597,3.376c0.132,0.391,0.283,0.714,0.73,0.855c0.199,0.063,0.378,0.28,0.503,0.468
		c1.304,1.965,1.016,4.631-0.403,6.316c-0.171,0.203-0.309,0.137-0.492,0.034c-0.867-0.487-1.208-1.322-1.478-2.204
		c-0.363-1.188-0.216-2.382,0.002-3.569c0.045-0.247,0.189-0.495,0.345-0.697c0.196-0.253,0.22-0.473,0.102-0.767
		C40.909,6.2,39.205,5.03,36.733,5.06c-3.482,0.042-6.349,1.375-8.125,4.441c-1.273,2.197-1.465,4.639-0.818,7.118
		c0.025,0.097,0.074,0.187,0.13,0.326c0.917-0.309,1.763-0.723,2.554-1.252c1.281-0.858,1.768-2.138,1.892-3.603
		c0.203-2.395,1.741-4.024,4.095-4.889c-0.256,0.24-0.499,0.496-0.771,0.716c-1.029,0.833-1.858,1.813-2.423,3.025
		c-0.333,0.715-0.67,1.398-0.776,2.213c-0.2,1.539-1.222,2.521-2.53,3.227c-0.515,0.278-1.051,0.521-1.59,0.751
		c-0.289,0.123-0.356,0.27-0.259,0.573c0.341,1.062,0.671,2.129,0.583,3.269c-0.022,0.284-0.047,0.567-0.077,0.932
		c0.163-0.103,0.258-0.14,0.323-0.207c1.415-1.456,4.242-0.71,5.001,1.191c0.081,0.203,0.291,0.418,0.492,0.498
		c1.725,0.686,2.319,2.879,1.158,4.345c-0.66,0.833-0.664,0.84-1.607,0.354c-1.319-0.681-2.243-2.069-1.584-3.685
		c0.111-0.272,0.305-0.539,0.528-0.727c0.274-0.231,0.284-0.425,0.128-0.716c-0.531-0.985-1.791-1.651-2.798-1.431
		c-0.913,0.2-1.455,0.826-1.793,1.658c-0.385,0.949-0.712,1.926-1.159,2.845c-0.471,0.969-1.171,1.787-2.012,2.474
		c-0.041,0.034-0.068,0.085-0.146,0.185c0.516,0.033,0.976,0.071,1.437,0.09c0.996,0.04,1.995,0.033,2.986,0.12
		c0.499,0.044,0.993,0.229,1.473,0.397c0.335,0.117,0.496,0.411,0.471,0.77c-0.079,1.127,0.111,2.215,0.39,3.303
		c0.229,0.89-0.097,1.361-1.021,1.524c-0.399,0.07-0.565,0.256-0.651,0.636c-0.665,2.963-1.224,5.943-1.526,8.967
		c-0.064,0.638-0.35,0.957-0.969,1.061c-3.04,0.51-6.094,0.57-9.157,0.273c-0.582-0.056-1.163-0.149-1.735-0.268
		c-0.727-0.151-0.957-0.471-1.033-1.211c-0.291-2.833-0.824-5.625-1.462-8.398c-0.003-0.014-0.01-0.028-0.011-0.043
		c-0.008-0.698-0.382-1.06-1.053-1.152c-0.043-0.006-0.084-0.026-0.126-0.04c-0.588-0.204-0.726-0.41-0.625-1.016
		c0.121-0.722,0.288-1.436,0.391-2.161c0.055-0.386,0.042-0.788,0.015-1.18c-0.042-0.601,0.108-0.94,0.671-1.136
		c0.467-0.162,0.96-0.285,1.45-0.332c0.786-0.075,1.581-0.063,2.371-0.104c0.935-0.049,1.869-0.122,2.805-0.172
		c0.279-0.015,0.348-0.162,0.333-0.402c-0.033-0.526-0.067-1.053-0.094-1.58c-0.058-1.141-0.113-2.282-0.166-3.423
		c-0.023-0.5-0.192-0.933-0.498-1.334c-0.219-0.286-0.372-0.624-0.554-0.939C19.206,20.952,19.15,20.959,19.094,20.967z
		 M23.699,19.157c-0.151,0.067-0.274,0.107-0.382,0.173c-1.801,1.087-2.576,2.711-2.425,4.775c0.102,1.387,0.285,2.768,0.416,4.153
		c0.025,0.259,0.122,0.358,0.378,0.365c0.688,0.019,1.375,0.076,2.063,0.075c0.231-0.001,0.514-0.072,0.682-0.217
		c0.596-0.517,1.265-1.002,1.705-1.638c1.904-2.752,2.577-5.738,1.44-8.992c-0.035-0.101-0.161-0.171-0.244-0.255
		c-0.028,0.115-0.103,0.241-0.077,0.342c0.186,0.718,0.274,1.442-0.205,2.066c-0.38,0.495-0.846,0.926-1.293,1.366
		c-0.056,0.056-0.262,0.036-0.344-0.024c-0.594-0.432-1.17-0.889-1.476-1.59C23.857,19.571,23.788,19.382,23.699,19.157z
		 M21.01,21.146c0.572-0.941,1.357-1.632,2.279-2.167c0.269-0.156,0.33-0.321,0.314-0.632c-0.054-1.068-0.011-2.13,0.308-3.17
		c0.098-0.319,0.191-0.712,0.091-1.005c-0.36-1.051-0.784-2.082-1.227-3.101c-0.129-0.298-0.381-0.555-0.615-0.793
		c-0.628-0.638-1.246-0.573-1.755,0.17c-0.512,0.748-0.768,1.586-0.763,2.485C19.654,15.721,19.929,18.47,21.01,21.146z
		 M19.975,20.995c-0.023-0.342-0.039-0.575-0.056-0.824C19.469,20.335,19.473,20.445,19.975,20.995z"/>
</g>
</svg>
