<?xml version="1.0" encoding="utf-8"?>
<!-- Generator: Adobe Illustrator 17.0.0, SVG Export Plug-In . SVG Version: 6.00 Build 0)  -->
<!DOCTYPE svg PUBLIC "-//W3C//DTD SVG 1.1//EN" "http://www.w3.org/Graphics/SVG/1.1/DTD/svg11.dtd">
<svg version="1.1" id="Capa_1" xmlns="http://www.w3.org/2000/svg" xmlns:xlink="http://www.w3.org/1999/xlink" x="0px" y="0px"
	 width="50px" height="50px" viewBox="0 0 50 50" enable-background="new 0 0 50 50" xml:space="preserve">
<path d="M41.333,25.75c0,9.021-7.313,16.333-16.333,16.333S8.667,34.771,8.667,25.75c0-4.444,1.775-8.474,4.655-11.419
	C16.287,11.299,20.424,9.417,25,9.417C34.021,9.417,41.333,16.729,41.333,25.75z"/>
<path fill="#FFFFFF" d="M15.125,18.625l3,2.375l2,0.5c0,0,0.375,1.125,0.125,1.625s0,2.75,0,2.75s1.625,1,1.75,1.875
	s-0.25,1.875-0.75,1.875s-1.375-1.25-1.375,0.375s-0.25,2,0.75,2.375s4.75,1.375,4.25,2.5s-1.125,1.375-1.375,1.75
	s-0.75,1-0.625,1.375s1,2.625,1,2.625l0.5,0.5c0,0,3,0.375,5.5-0.5s4-2.25,4-2.25l-1-1.75c0,0-1.75-1-1.875-1.75s-0.25-2.5-0.25-2.5
	s1,0.125,1.125-0.75s0.625-2-0.25-2.5s-1.875-1.375-2-1.75s-0.25-2.125,0.125-3s1.75-1.625,2.125-1.625s2.625,0.875,3,1
	s0.5,1.875,1.25,0.25S36.75,21.75,36,21.375s-1.5-0.5-1.875-1.625s-2-2.75-2-3.375s-0.5-1.25,0-1.5s0.75-0.375,1.25-0.375
	s-0.75-2.125-0.75-2.125s-4.095-3.42-11.042-1.792c-5.333,1.25-7.5,4.667-7.5,4.667S13.25,17.375,15.125,18.625z"/>
</svg>
