<?xml version="1.0" encoding="utf-8"?>
<!-- Generator: Adobe Illustrator 17.0.0, SVG Export Plug-In . SVG Version: 6.00 Build 0)  -->
<!DOCTYPE svg PUBLIC "-//W3C//DTD SVG 1.1//EN" "http://www.w3.org/Graphics/SVG/1.1/DTD/svg11.dtd">
<svg version="1.1" id="Capa_1" xmlns="http://www.w3.org/2000/svg" xmlns:xlink="http://www.w3.org/1999/xlink" x="0px" y="0px"
	 width="50px" height="50px" viewBox="0 0 50 50" enable-background="new 0 0 50 50" xml:space="preserve">
<g>
	<g>
		<path d="M35.76,21.162l-0.505-1.135l-0.591-1.046c-0.216-0.336-0.457-0.661-0.681-0.988c-0.247-0.314-0.517-0.608-0.771-0.91
			c-0.275-0.285-0.57-0.55-0.85-0.823c-0.301-0.253-0.617-0.487-0.921-0.73l-0.976-0.639l-1.025-0.54l-1.067-0.432l-1.094-0.33
			l-1.113-0.227c-0.377-0.036-0.749-0.09-1.123-0.115c-0.376,0.002-0.75-0.018-1.122,0.003c-0.372,0.044-0.743,0.071-1.108,0.124
			l-1.082,0.242c-0.352,0.117-0.697,0.241-1.046,0.344l0.113-0.038l-1.054,0.558c-0.368,0.181-0.716,0.416-1.084,0.607
			c-0.382,0.176-0.724,0.406-1.075,0.624l-1.072,0.65l-1.744-2.05l1.106-0.975c0.362-0.343,0.76-0.633,1.178-0.889
			c0.203-0.138,0.418-0.257,0.627-0.386c0.211-0.125,0.416-0.261,0.647-0.355l0.675-0.309c0.215-0.1,0.481-0.19,0.733-0.281
			l0.095-0.034l0.019-0.004c0.455-0.087,0.912-0.153,1.364-0.227l1.372-0.093c0.457-0.006,0.913,0.019,1.366,0.031
			c0.452,0.04,0.902,0.103,1.349,0.153c0.445,0.077,0.884,0.184,1.322,0.277c0.432,0.122,0.857,0.269,1.282,0.404
			c0.416,0.165,0.822,0.35,1.227,0.531l1.16,0.652l1.083,0.76c0.335,0.287,0.675,0.564,0.995,0.86c0.3,0.32,0.608,0.629,0.894,0.954
			c0.266,0.346,0.541,0.679,0.791,1.03c0.228,0.368,0.469,0.724,0.68,1.096c0.19,0.386,0.39,0.761,0.565,1.151
			c0.154,0.403,0.308,0.806,0.441,1.205l0.305,1.205L35.76,21.162z"/>
		<g>
			<path d="M12.15,20.185c0.868-2.87,1.557-6.725,1.361-9.587l2.723,4.202l4.78,1.487C18.206,16.87,14.68,18.574,12.15,20.185z"/>
		</g>
	</g>
</g>
<g>
	<g>
		<path d="M16.528,32.022c0,0,0.212,0.31,0.423,0.62c0.232,0.285,0.463,0.569,0.463,0.569l-0.213,0.18c0,0-0.226-0.31-0.451-0.619
			c-0.195-0.321-0.39-0.641-0.39-0.641L16.528,32.022z"/>
		<path d="M19.592,34.936c0,0,0.161,0.078,0.402,0.195c0.242,0.131,0.564,0.24,0.883,0.366c0.66,0.224,1.344,0.359,1.344,0.359
			l-0.126,0.567c0,0-0.714-0.18-1.398-0.454c-0.339-0.154-0.688-0.298-0.912-0.436c-0.235-0.13-0.392-0.216-0.392-0.216
			L19.592,34.936z"/>
		<path d="M24.983,36.051c0,0,0.178-0.014,0.446-0.034c0.27-0.018,0.627-0.046,0.957-0.103c0.332-0.042,0.684-0.117,0.915-0.171
			c0.238-0.08,0.397-0.133,0.397-0.133l0.259,0.843c0,0-0.183,0.051-0.458,0.127c-0.294,0.054-0.647,0.109-1.027,0.138
			c-0.38,0.042-0.737,0.051-1.004,0.054c-0.268,0.006-0.447,0.011-0.447,0.011L24.983,36.051z"/>
		<path d="M30.17,34.437c0,0,0.627-0.386,1.143-0.785c0.54-0.422,1.03-0.898,1.03-0.898l0.773,0.82c0,0-0.557,0.502-1.163,0.939
			c-0.637,0.451-1.246,0.79-1.246,0.79L30.17,34.437z"/>
		<path d="M34.03,30.653c0,0,0.09-0.155,0.224-0.387c0.149-0.238,0.274-0.526,0.426-0.821c0.279-0.617,0.486-1.258,0.486-1.258
			l1.272,0.431c0,0-0.26,0.713-0.598,1.389c-0.185,0.336-0.37,0.695-0.514,0.907c-0.143,0.227-0.238,0.378-0.238,0.378L34.03,30.653
			z"/>
		<path d="M35.652,25.569c0,0,0.006-0.179,0.014-0.447c0.018-0.283-0.007-0.586-0.013-0.917c-0.043-0.671-0.156-1.333-0.156-1.333
			l1.54-0.239c0,0,0.101,0.754,0.12,1.514c-0.004,0.385,0.002,0.797-0.025,1.05c-0.019,0.268-0.031,0.446-0.031,0.446L35.652,25.569
			z"/>
		<path d="M34.75,20.324c0,0-0.074-0.163-0.185-0.407c-0.109-0.262-0.264-0.524-0.411-0.813c-0.329-0.579-0.718-1.119-0.718-1.119
			l1.485-1.023c0,0,0.418,0.644,0.767,1.327c0.166,0.354,0.349,0.724,0.435,0.962c0.1,0.249,0.167,0.415,0.167,0.415L34.75,20.324z"
			/>
		<path d="M31.664,16.06c0,0-0.139-0.113-0.346-0.283c-0.215-0.19-0.459-0.353-0.713-0.547c-0.542-0.375-1.119-0.694-1.119-0.694
			l1.006-1.782c0,0,0.667,0.392,1.289,0.851c0.309,0.245,0.647,0.501,0.828,0.675c0.199,0.181,0.331,0.301,0.331,0.301L31.664,16.06
			z"/>
		<path d="M27.095,13.522c0,0-0.172-0.048-0.431-0.119c-0.275-0.085-0.56-0.131-0.873-0.203c-0.648-0.119-1.305-0.17-1.305-0.17
			l0.12-1.989c0,0,0.772,0.041,1.536,0.165c0.386,0.077,0.807,0.152,1.047,0.222c0.26,0.066,0.433,0.111,0.433,0.111L27.095,13.522z
			"/>
		<path d="M21.872,13.086l-0.722,0.122l-0.643,0.137l0.065-0.022c-0.379,0.126-0.801,0.33-1.205,0.493l-0.738-1.432
			c0.442-0.225,0.84-0.465,1.33-0.676l0.018-0.008l0.048-0.014l0.775-0.231l0.715-0.165L21.872,13.086z"/>
		<path d="M16.969,15.129c0,0-0.148,0.101-0.37,0.252c-0.232,0.154-0.485,0.35-0.766,0.551c-0.548,0.419-1.054,0.89-1.054,0.89
			l-0.709-0.657c0,0,0.471-0.575,0.999-1.103c0.546-0.545,1.095-0.988,1.095-0.988L16.969,15.129z"/>
		<path d="M12.975,18.92c0,0-0.195,0.322-0.39,0.644c-0.17,0.326-0.34,0.653-0.34,0.653l-0.189-0.065c0,0,0.104-0.372,0.207-0.744
			c0.133-0.352,0.266-0.705,0.266-0.705L12.975,18.92z"/>
	</g>
</g>
</svg>
